<?xml version="1.0" encoding="UTF-8"?>
<svg id="Capa_2" data-name="Capa 2" xmlns="http://www.w3.org/2000/svg" viewBox="0 0 1875.23 692.84">
  <defs>
    <style>
      .cls-1 {
        fill: #1e3a8a;
      }

      .cls-2 {
        fill: #fff;
      }

      .cls-3 {
        fill: #fe202d;
      }
    </style>
  </defs>
  <g id="Capa_1-2" data-name="Capa 1">
    <g>
      <path class="cls-1" d="M1469.82.33c29.79,8.38,35.18,22.35,26.59,51.07-4.2,14.04-10.9,28.54-15.5,42.67-29.17,89.61-57.54,184.33-71.28,277.74-3.16,21.46-11.54,76.65,1.35,93.77,10.05,13.35,25.54,7.83,36.01-1.73,3.83-3.5,10.84-12.11,11.44-17.09,1.6-13.34-.39-28.77,1.25-43.22,12.12-106.54,100.35-217.66,217.39-202.53,28.28,3.66,76.24,23.58,87.58,51.66,8,19.82,1.78,26.38-1.23,44.79-6.42,39.25-23.94,120.4-11.22,155.79,11.94,33.24,43.07,21.65,61.97,2.07,15.7-16.26,20.51-35.64,31.54-52.88,9.1-14.23,26.45-7.82,29.51,7.23v7.98c-5.16,17.56-11.04,34.14-19.96,50.2-23.69,42.64-62.04,76.45-114.08,71.66-36.38-3.34-54.52-28.47-65-60.53-1.43-4.37-1.16-13.87-7-7.65-9.43,10.03-16.86,25.94-28.02,37.01-41.77,41.43-117.47,50.92-157.61,2.21-1.86-2.26-7.78-13.22-9.72-13.21l-3.5,1.21c-15.19,19.24-38.66,38.43-64.03,40.97-89.75,8.97-87.69-88.28-81.51-150.94,1.86-18.86,6.02-37.64,7.98-56.45-1.41-1.4-23.19,7.58-27.16,8.79-4.56,1.39-16.07,1.94-18.39,5.58-1.94,3.05-1.78,19.39-2.55,24.82-13.93,98.84-90.61,193.01-199.93,170.27-128.59-26.74-106.37-200.43-35.2-276.2,63.77-67.89,188.86-77.88,227.83,20.01,2.2,5.52,1.13,14.83,9.01,14.69,15.16-.28,48-15.14,56.69-27.82,4.65-6.78,11.68-49.23,14.46-60.82,10.79-44.95,22.69-90.42,36.61-134.48,4.94-15.63,13.15-46.39,22.67-58.32,8.71-10.92,21.92-14.5,34.73-18.34h18.27ZM1646.6,258.37c-69.24,7.52-120.26,136.22-100.84,195.8,6.53,20.03,22.14,29.72,43.06,24.73,39.78-9.47,70.44-82.78,81.42-118.25,5.64-18.22,8.42-42.11,15.4-58.74,1.7-4.05,9.12-12.8,9.14-13.63.04-2.34-5.72-13.01-7.48-15.35-10.05-13.43-24.77-16.29-40.7-14.56ZM1153.21,267.45c-68.41,8.76-107.57,169.14-56.84,211.24,20.29,16.84,45.9,12.67,65.12-3.42,39.3-32.89,56.66-110.52,46.05-158.89-6.08-27.73-22.38-53.02-54.33-48.93Z"/>
      <path class="cls-1" d="M708.12.33c36.62,4.27,47.59,40.69,53.31,71.63,7.43,40.17,5,80.03,1.49,120.5l-9.72,70.15c1.71,2.05,1.92,1.07,3.47,0,3.3-2.27,9.03-10.6,13.1-14.29,71.18-64.55,184.37-33.54,198.57,65.17,11.79,81.99-32.73,174.05-106.02,213.1-40.87,21.77-96.65,28.74-139.76,9.51-4.07-1.82-19.61-11.93-20.9-12.1-4.53-.62-4.64,5.05-6.75,7.64-12.88,15.86-39.89,18.37-57.57,9.74s-15.88-23.38-13.39-39.55,8.23-31.97,11.7-47.61c26.12-117.79,54.66-251.79,33.32-372-2.41-13.57-11.38-38.81-11.12-50.44.41-18.33,17.45-29.49,34.29-31.42,3.85-.44,12.15-.45,15.99,0ZM832.32,273.15c-34.86,4.35-63.76,44.16-78.92,72.85-18.77,35.52-29.94,75.99-36.22,115.59,7.47,18.39,30.68,31.54,49.89,33.48,80.13,8.08,128.35-101.32,119.06-167.91-3.94-28.21-21.17-58.08-53.81-54.01Z"/>
      <path class="cls-1" d="M324.18,7.51c147.19-5.26,282.24,90.66,290.35,244.2,5.47,103.67-33.64,194.65-108.52,264.6-3.28,3.06-15.7,11.15-16.06,14.87-.22,2.27,4.52,7.52,6.33,9.65,34.22,40.46,84.42,65.51,137.07,70.66,10.59,1.04,30.2-3.2,22.34,16.63-5.86,14.78-59.24,41.31-74.86,47.26-97.9,37.26-195.23,12.19-275.72-49.72-4.98-3.83-17.02-16.76-21.73-18.22-6.68-2.07-22.21-.02-30.32-.52-126.32-7.75-234.69-98.98-250.53-226.48C-21.58,186.5,130.29,14.43,324.18,7.51ZM488.85,624.05c.48-2.63-.67-3.5-2.24-5.16-4.89-5.18-18.99-12.81-25.76-18.75-22.72-19.92-54.49-58.61-64.71-87.04-5.57-15.52,7.04-16.92,17.71-24.94,58.29-43.85,97.02-115.05,101.32-188.46,12.4-211.58-231.82-282.47-358.08-127.21-100.75,123.89-69.62,336.21,110.8,354.63,7.92.81,25.29-.24,31.45,1.66,3.98,1.23,19.25,18.71,23.9,22.88,45.2,40.49,103.86,70.7,165.6,72.38Z"/>
      <path class="cls-3" d="M1727.61,10.87c17.11-2.91,42.87,11.98,49.61,27.45,8.27,18.98-3.91,26.22-16.98,35.92-33.98,25.23-70.37,47.59-105.07,71.83-11.48,7.62-26.91,2.19-25.53-12.89.44-4.86,5.08-10.97,7.8-15.08,22.91-34.59,54.52-66.46,78.44-100.7,2.85-2.72,7.84-5.86,11.74-6.53Z"/>
      <path class="cls-3" d="M488.85,624.05c-61.74-1.68-120.39-31.9-165.6-72.38-4.66-4.17-19.92-21.66-23.9-22.88-6.16-1.9-23.54-.85-31.45-1.66-180.42-18.41-211.55-230.73-110.8-354.63,126.26-155.26,370.48-84.37,358.08,127.21-4.3,73.41-43.03,144.6-101.32,188.46-10.67,8.02-23.28,9.42-17.71,24.94,10.21,28.43,41.99,67.12,64.71,87.04,6.77,5.93,20.87,13.56,25.76,18.75,1.57,1.66,2.72,2.53,2.24,5.16ZM424.62,267.43c-2.76-2.72-40-1.17-47.15-1.37-2.7-.08-5.2-1.13-7.9-1.23-13.68-.54-27.06,4.82-33.95-9.43-8.75-18.08-13.41-42.35-22.08-61.2-2.96-6.44-6.21-8.88-10.53-1.44-10.08,17.36-14.62,47.29-24.56,64.41-2.24,3.86-6.04,7.19-10.54,7.72-16.29,1.92-38.34.23-55.94,1.16-7.67.4-27.46-3.88-20.82,8.75l57.49,45.19c3.31,4.16,4.42,7.04,3.55,12.44-2.61,16.31-11.4,38.09-15.63,55.1-1.64,6.58-8.12,21.25,3.26,19.31,8.59-6.13,18.02-10.93,26.94-16.53,10.83-6.8,22.57-16.66,33.3-22.62,2.59-1.44,4.58-2.71,7.76-2.57,6.51.28,24.49,15.02,31.07,19.25,5.3,3.4,35.54,23.09,38.61,23.13,3.78.05,5.44-2.38,4.94-6.07-2.83-20.94-15.51-46.08-18.7-66.95-1.66-10.87,1.87-12.67,9.22-19.42s51.92-39.14,52.9-43.03c.33-1.28-.34-3.71-1.26-4.62Z"/>
    </g>
    <path class="cls-2" d="M383.95,421.31l-71.8-52.52c-1.75-1.28-4.12-1.29-5.88-.02l-72.14,52.06c-3.93,2.83-9.19-1.01-7.68-5.62l27.76-84.52c.68-2.06-.05-4.32-1.8-5.6l-71.8-52.52c-3.91-2.86-1.88-9.05,2.97-9.04l88.96.29c2.17,0,4.09-1.38,4.77-3.44l27.76-84.52c1.51-4.6,8.03-4.58,9.51.03l27.22,84.69c.66,2.06,2.58,3.46,4.74,3.47l88.96.29c4.84.02,6.84,6.22,2.91,9.05l-72.14,52.06c-1.76,1.27-2.5,3.52-1.83,5.58l27.22,84.69c1.48,4.61-3.8,8.42-7.71,5.57Z"/>
  </g>
</svg>